<?xml version="1.0" encoding="UTF-8"?>
<svg version="1.1" xmlns="http://www.w3.org/2000/svg" width="512" height="512">
<path d="M0 0 C1.43346519 -0.01007584 1.43346519 -0.01007584 2.89588928 -0.02035522 C6.0365223 -0.03925933 9.17694067 -0.04325586 12.31762695 -0.04541016 C14.51707545 -0.05184426 16.71652311 -0.05857307 18.91596985 -0.06558228 C23.52147402 -0.07753677 28.12690329 -0.08126507 32.73242188 -0.08007812 C38.60516633 -0.07987526 44.47742514 -0.10715293 50.35005474 -0.14162254 C54.892829 -0.16397142 59.43548796 -0.16791319 63.97831154 -0.16685867 C66.14184044 -0.16920355 68.30537306 -0.17796358 70.46884727 -0.19352341 C91.05683622 -0.32771125 107.11264638 2.8773403 122.60668945 17.57568359 C126.48799253 21.77087121 129.3581199 26.30688354 132.1184082 31.29052734 C132.51672852 31.94408203 132.91504883 32.59763672 133.32543945 33.27099609 C139.76781991 44.58738723 139.72466506 58.75806129 140.28637695 71.42724609 C140.37095176 73.15863494 140.45636382 74.88998307 140.54255676 76.62129211 C140.72013784 80.23738048 140.88997773 83.85371768 141.05371094 87.47045898 C141.25996161 92.02026623 141.4820279 96.56912455 141.7091198 101.11793327 C142.22155997 111.41349067 142.66370029 121.71014157 143.0344162 132.01177216 C143.11450244 134.18456168 143.20208289 136.35692787 143.2913208 138.52935791 C143.43197401 142.22719096 143.52860424 145.92294585 143.60668945 149.62255859 C143.65012985 150.65104416 143.69357025 151.67952972 143.73832703 152.73918152 C143.82821267 161.58168721 140.79067809 169.17842366 134.87593079 175.80158997 C127.76158953 182.64542163 121.87796 184.50408272 112.1184082 184.66552734 C111.45381592 184.67970703 110.78922363 184.69388672 110.10449219 184.70849609 C106.36749548 184.67174628 103.35794004 184.13826506 99.8684082 182.765625 C99.16200195 182.49078278 98.4555957 182.21594055 97.7277832 181.93276978 C97.19668945 181.72082977 96.6655957 181.50888977 96.1184082 181.29052734 C96.12729065 182.50860077 96.1361731 183.72667419 96.14532471 184.98165894 C96.22657261 196.48651705 96.28645141 207.99131661 96.32565689 219.49639702 C96.34649075 225.41064327 96.37473188 231.32465705 96.42016602 237.23876953 C96.4637732 242.95111487 96.48757689 248.66323723 96.49791718 254.37573624 C96.50528185 256.55013664 96.51966315 258.72452547 96.54132843 260.89883041 C96.57055974 263.95527839 96.57435593 267.01081653 96.57250977 270.06738281 C96.58689087 270.95715317 96.60127197 271.84692352 96.61608887 272.76365662 C96.55936805 281.49819429 93.83830033 289.31708223 87.8215332 295.75927734 C80.97227981 301.91732168 73.58311127 304.68758 64.3684082 304.66552734 C63.66611084 304.66391602 62.96381348 304.66230469 62.24023438 304.66064453 C53.97884772 304.467085 47.23247743 301.99699196 41.1184082 296.29052734 C38.14030295 297.34162332 35.8065342 298.50286709 33.1809082 300.29052734 C25.58054616 305.25402908 16.88885112 305.18433044 8.1184082 304.29052734 C-0.45653739 302.33814646 -6.90034592 297.59262863 -11.6940918 290.29052734 C-15.63448132 283.83528171 -16.16729991 277.89715034 -16.10864258 270.52148438 C-16.10893463 269.55500473 -16.10922668 268.58852509 -16.10952759 267.59275818 C-16.10813879 264.41119278 -16.09259864 261.22986413 -16.0769043 258.04833984 C-16.07317257 255.83731209 -16.07032635 253.62628268 -16.06832886 251.41525269 C-16.06070499 245.60542203 -16.04106712 239.79569191 -16.0189209 233.98590088 C-15.99843567 228.0536027 -15.98932141 222.12128822 -15.97924805 216.18896484 C-15.95782012 204.55610826 -15.92369914 192.92332617 -15.8815918 181.29052734 C-16.41309341 181.50205948 -16.94459503 181.71359161 -17.49220276 181.93153381 C-18.55228798 182.3433213 -18.55228798 182.3433213 -19.63378906 182.76342773 C-20.33029068 183.03683487 -21.0267923 183.310242 -21.74440002 183.5919342 C-28.56103999 185.82011886 -38.2244878 185.41402409 -44.8815918 182.72802734 C-46.93237305 181.59912109 -46.93237305 181.59912109 -48.8815918 180.29052734 C-49.92379883 179.59636719 -49.92379883 179.59636719 -50.98706055 178.88818359 C-57.4842829 173.90251016 -61.9431675 166.53652195 -63.39001465 158.44833374 C-63.5379842 155.48131035 -63.49198099 152.58280455 -63.3659668 149.61474609 C-63.34177673 148.47800949 -63.31758667 147.34127289 -63.29266357 146.17008972 C-63.21165707 142.92840305 -63.09856132 139.68981261 -62.96725464 136.44982147 C-62.87752312 134.18796854 -62.79763418 131.92592508 -62.71972656 129.66363525 C-62.3577024 119.28013386 -61.89960062 108.90297898 -61.39233398 98.52563477 C-61.17081981 93.98069717 -60.97040384 89.43507955 -60.77472305 84.88896656 C-60.61753374 81.32007095 -60.44561509 77.75198915 -60.2698288 74.18396568 C-60.18964171 72.50882965 -60.11458539 70.8334381 -60.04529572 69.15781593 C-59.16431716 48.17491062 -54.88153473 29.18702593 -38.8815918 14.29052734 C-27.44247189 4.81663711 -14.7719068 -0.01511347 0 0 Z M-32.0690918 32.41552734 C-39.36250284 40.88622127 -41.82976593 50.91470823 -42.36230469 61.82104492 C-42.401465 62.56350967 -42.44062531 63.30597443 -42.48097229 64.07093811 C-42.60928857 66.52546157 -42.73203548 68.98022415 -42.85424805 71.43505859 C-42.94234869 73.16404477 -43.03060316 74.89302312 -43.1190033 76.62199402 C-43.30391977 80.25755555 -43.48589424 83.89325062 -43.66601562 87.52905273 C-43.84873691 91.21126113 -44.03587124 94.8931977 -44.22753906 98.57495117 C-45.55407016 123.52075818 -45.55407016 123.52075818 -46.25268555 148.48974609 C-46.27887466 149.42607376 -46.30506378 150.36240143 -46.33204651 151.32710266 C-46.34974632 156.8289407 -45.55669451 159.92727323 -41.8815918 164.29052734 C-38.04394257 167.67668843 -34.24474407 167.8066529 -29.31518555 167.63818359 C-24.22923003 166.91161852 -21.64076575 164.25488345 -18.5690918 160.35302734 C-15.65943303 155.07253551 -15.73196833 149.98081611 -15.72387695 144.05957031 C-15.71879623 143.24435913 -15.71371552 142.42914795 -15.70848083 141.5892334 C-15.69780892 139.82520484 -15.68917637 138.06116301 -15.6823616 136.29711533 C-15.67054374 133.5066094 -15.65108655 130.71625621 -15.62924194 127.92581177 C-15.56770058 119.99421231 -15.51347983 112.06263203 -15.48022461 104.13085938 C-15.45931949 99.27500897 -15.42405908 94.41944317 -15.37946701 89.56375504 C-15.36528351 87.7129869 -15.35657929 85.8621685 -15.35341263 84.01134872 C-15.34852215 81.42815917 -15.32541627 78.84573098 -15.2980957 76.26269531 C-15.30110184 75.49587433 -15.30410797 74.72905334 -15.3072052 73.93899536 C-15.22578335 68.77397453 -15.22578335 68.77397453 -13.47665405 66.31716919 C-11.48749876 65.0368743 -10.23788341 64.8887513 -7.8815918 64.91552734 C-6.8606543 64.90392578 -6.8606543 64.90392578 -5.8190918 64.89208984 C-3.14963807 65.44105009 -2.4712404 66.04880218 -0.8815918 68.29052734 C-0.58767628 71.04705999 -0.47864579 73.57797531 -0.50305176 76.33535767 C-0.49852163 77.16461553 -0.4939915 77.99387339 -0.48932409 78.84826028 C-0.47766267 81.63727934 -0.48736229 84.42582223 -0.49682617 87.21484375 C-0.49272264 89.21051341 -0.48726306 91.20618069 -0.48054504 93.20184326 C-0.4687999 97.50546665 -0.466343 101.80896172 -0.47090149 106.11259842 C-0.47769887 112.92037778 -0.46186283 119.72798777 -0.44250488 126.53573608 C-0.40459699 140.99565733 -0.39184951 155.45556404 -0.3815918 169.91552734 C-0.37052148 185.50473493 -0.35513384 201.09386478 -0.31087923 216.68301904 C-0.29253563 223.4469898 -0.28862659 230.21076775 -0.29581451 236.97475743 C-0.29733904 241.19039358 -0.28653499 245.40593381 -0.27243614 249.62154388 C-0.26844147 251.57218183 -0.26954485 253.52283813 -0.27620888 255.47346878 C-0.28462847 258.14381074 -0.27455654 260.81349256 -0.26013184 263.48379517 C-0.26702577 264.24928669 -0.27391971 265.01477821 -0.28102255 265.80346644 C-0.21952025 271.67909146 0.52707279 278.37493468 4.57029867 282.9240948 C9.32999764 286.96219805 12.51122427 287.64656431 18.5793457 287.56787109 C22.34301223 287.1567629 24.33631008 285.80766374 27.1184082 283.29052734 C32.19940894 276.83628316 32.26633272 271.19236546 32.27612305 263.32519531 C32.28120377 262.43195557 32.28628448 261.53871582 32.29151917 260.6184082 C32.30219701 258.68413133 32.31082726 256.7498423 32.3176384 254.81554794 C32.32944802 251.75620856 32.34890337 248.69700902 32.37075806 245.63772583 C32.43232576 236.94147358 32.48652044 228.24523852 32.51977539 219.54882812 C32.54067602 214.22615313 32.57593373 208.90373797 32.62053299 203.58121109 C32.63472098 201.55181044 32.64342171 199.52236388 32.64658737 197.49291611 C32.65147563 194.66068884 32.67457653 191.8291571 32.7019043 188.99707031 C32.6973951 187.73462997 32.6973951 187.73462997 32.6927948 186.44668579 C32.77534047 180.70948048 32.77534047 180.70948048 34.52181435 178.57669258 C36.5097603 176.97526654 37.59031924 176.88679906 40.1184082 176.91552734 C40.7990332 176.90779297 41.4796582 176.90005859 42.1809082 176.89208984 C44.70292665 177.41073073 45.49991471 178.31478458 47.1184082 180.29052734 C47.41287194 183.24098087 47.52489668 185.9821686 47.50317383 188.93359375 C47.5085466 189.81690369 47.51391937 190.70021362 47.51945496 191.61029053 C47.5292449 193.53038977 47.53217344 195.45053332 47.52909851 197.37065506 C47.52462479 200.41482896 47.53861086 203.45842012 47.55749512 206.50253296 C47.59432596 212.97352142 47.60798258 219.44444952 47.6184082 225.91552734 C47.63050101 233.39472217 47.65218427 240.87363467 47.69841003 248.35270309 C47.71193269 251.34223408 47.70781647 254.33140404 47.70300293 257.32095337 C47.71235124 259.17100474 47.72252198 261.02105219 47.73364258 262.87109375 C47.72749435 263.69429108 47.72134613 264.5174884 47.7150116 265.3656311 C47.77822721 271.39335044 48.4025981 278.23931008 52.57027435 282.92170143 C57.32675746 286.96408346 60.51202289 287.64655395 66.5793457 287.56787109 C70.34301223 287.1567629 72.33631008 285.80766374 75.1184082 283.29052734 C80.04713546 277.02971164 80.26707683 271.70357382 80.25643921 263.96481323 C80.26067113 262.71201307 80.26067113 262.71201307 80.26498854 261.43390381 C80.27331709 258.63724155 80.27467127 255.84061896 80.27612305 253.04394531 C80.28079234 251.03824757 80.2859361 249.03255088 80.29151917 247.02685547 C80.30279076 242.70910619 80.31122927 238.39136377 80.3176384 234.07360458 C80.32831838 227.25055112 80.34856121 220.42754722 80.37075806 213.60452271 C80.43268898 194.20316831 80.48675905 174.80181738 80.51977539 155.40039062 C80.53809156 144.6842668 80.56698489 133.96822648 80.6077801 123.25216401 C80.62889166 117.57970782 80.64431332 111.90735702 80.64658737 106.23485947 C80.64872692 100.90457006 80.664525 95.57450049 80.6909771 90.24427795 C80.69819667 88.28467647 80.70025828 86.32504842 80.69687462 84.36543655 C80.69300249 81.69745243 80.70736041 79.03017837 80.72640991 76.36227417 C80.72088022 75.58066984 80.71535052 74.79906551 80.70965326 73.9937762 C80.77429929 68.77591196 80.77429929 68.77591196 82.52181435 66.31094551 C84.51180598 65.03909819 85.76563091 64.88879124 88.1184082 64.91552734 C89.1393457 64.90392578 89.1393457 64.90392578 90.1809082 64.89208984 C92.84468888 65.43988345 93.52833191 66.0584645 95.1184082 68.29052734 C95.41261898 71.00239455 95.52510174 73.48673013 95.50317383 76.19921875 C95.5085466 77.00450012 95.51391937 77.80978149 95.51945496 78.63946533 C95.52924187 80.38931503 95.53217435 82.13921331 95.52909851 83.88908768 C95.52462215 86.66444253 95.5386183 89.43915906 95.55749512 92.21444702 C95.59431728 98.11479655 95.60797957 104.01507986 95.6184082 109.91552734 C95.63050637 116.73388721 95.65222141 123.5519377 95.69841003 130.37015915 C95.71191866 133.09379176 95.70781898 135.81702731 95.70300293 138.54067993 C95.71235272 140.22894787 95.72252383 141.91721153 95.73364258 143.60546875 C95.72749435 144.35386017 95.72134613 145.10225159 95.7150116 145.87332153 C95.78214021 151.7232769 96.54808011 158.39768081 100.57027435 162.92457008 C105.33047858 166.96163632 108.50876719 167.64181108 114.57543945 167.57177734 C119.21459255 167.05869129 121.90563403 164.79314805 124.76000977 161.2565918 C126.72059598 156.97564968 126.50651851 153.17699336 126.4152832 148.52099609 C126.4046283 147.49266159 126.39397339 146.46432709 126.38299561 145.40483093 C126.14759838 129.93232668 125.38683782 114.46836229 124.62915039 99.0144043 C124.40762458 94.47917605 124.20727948 89.94326152 124.01153946 85.40685749 C123.85471549 81.85864204 123.68269159 78.31127635 123.5066452 74.76396751 C123.42617539 73.09194814 123.35114958 71.41965605 123.28211212 69.74712563 C122.58392493 53.08518977 119.56376741 38.7770806 107.0324707 26.85302734 C93.58628912 15.87655258 78.06680684 16.1298892 61.59887695 16.12255859 C59.8917081 16.11933874 58.18453951 16.11597414 56.47737122 16.11247253 C52.90938681 16.10650792 49.34142653 16.10462989 45.7734375 16.10522461 C41.23138929 16.10532611 36.68949782 16.09167475 32.14748669 16.0744524 C28.62387907 16.06326191 25.10030851 16.06130755 21.57668495 16.06183434 C19.90357231 16.06066479 18.23045838 16.05630158 16.55736351 16.04850197 C-2.70448275 15.96710488 -18.13877445 17.989562 -32.0690918 32.41552734 Z " fill="#454646" transform="translate(215.881591796875,127.70947265625)"/>
<path d="M0 0 C1.96492759 3.41726538 2.45865805 6.65564028 1.4375 10.5 C-1.30054638 13.69678073 -3.52296705 15.13055597 -7.53515625 16.32421875 C-8.50815674 16.62585938 -9.48115723 16.9275 -10.48364258 17.23828125 C-11.52029053 17.55152344 -12.55693848 17.86476563 -13.625 18.1875 C-29.21842466 23.15519181 -46.58164312 29.0954275 -58.21875 41.2265625 C-59.5625 42.5 -59.5625 42.5 -61.5625 42.5 C-61.81 43.03625 -62.0575 43.5725 -62.3125 44.125 C-63.5625 46.5 -63.5625 46.5 -65.625 49.5625 C-69.20023787 54.98302193 -69.17800556 60.18023161 -68.5625 66.5 C-67.65186076 69.50250768 -66.31976095 71.91122756 -64.5625 74.5 C-64.18480469 75.07105469 -63.80710937 75.64210938 -63.41796875 76.23046875 C-45.45827605 99.94160382 -5.70881006 107.78329257 21.4375 112.5 C22.26217773 112.65162598 23.08685547 112.80325195 23.93652344 112.95947266 C83.326537 123.7279916 163.11787133 121.74565562 214.37109375 86.69140625 C222.05560334 81.19967392 228.37192501 75.69672496 231.4375 66.5 C232.14544555 59.31609356 231.66602903 53.49630872 227.4375 47.5 C226.89738281 46.9740625 226.35726563 46.448125 225.80078125 45.90625 C224.4375 44.5 224.4375 44.5 224.4375 42.5 C223.85355469 42.23316406 223.26960938 41.96632813 222.66796875 41.69140625 C220.39247719 40.47595104 218.70442047 39.11441655 216.75 37.4375 C201.9453083 25.82076801 183.4094876 19.72028243 165.58984375 14.421875 C163.4375 13.5 163.4375 13.5 161.4375 10.5 C160.78385879 3.63676732 160.78385879 3.63676732 162.875 0 C167.34650736 -2.61746772 172.264101 -2.00007066 177.16235352 -0.87304688 C180.13928902 0.00885652 183.06793417 0.97882415 186 2 C187.05268066 2.3594873 188.10536133 2.71897461 189.18994141 3.08935547 C198.02748149 6.18998623 206.26955755 9.93892933 214.4375 14.5 C215.3759375 15.01304687 216.314375 15.52609375 217.28125 16.0546875 C232.23910641 24.59543885 243.90244295 35.89482886 249.4375 52.5 C250.06365371 62.11813162 250.35438271 70.9069433 245.4375 79.5 C245.01339844 80.25410156 244.58929688 81.00820313 244.15234375 81.78515625 C228.11183828 107.83422224 194.18697154 118.95444091 166.12182617 125.91650391 C143.49067185 131.29053093 120.27654903 134.60786972 97 134.703125 C95.84919952 134.71013931 94.69839905 134.71715363 93.51272583 134.72438049 C89.82094364 134.7417859 86.12932171 134.74823226 82.4375 134.75 C81.1780658 134.75067474 79.91863159 134.75134949 78.62103271 134.75204468 C60.69609655 134.73675646 43.14939567 134.48744332 25.4375 131.5 C23.83914307 131.24259033 23.83914307 131.24259033 22.20849609 130.97998047 C-12.73996477 125.23143899 -54.90782143 115.21350092 -78.5625 86.5 C-85.66776533 75.54413926 -87.79134468 65.38244079 -86.5625 52.5 C-83.29345231 37.56417135 -70.87825056 26.39777356 -58.5625 18.5 C-57.59054688 17.87222656 -56.61859375 17.24445313 -55.6171875 16.59765625 C-43.5029893 9.22696939 -13.95149598 -8.16672935 0 0 Z " fill="#454646" transform="translate(174.5625,369.5)"/>
<path d="M0 0 C10.23906578 7.73254248 18.72711365 17.59665562 20.6875 30.6875 C22.11678455 48.13329299 19.50517553 61.04058775 8.03125 74.65234375 C0.02533375 83.28136197 -10.26078398 88.35475631 -21.96875 89.00390625 C-38.65548452 89.56319388 -50.64291019 85.89777041 -63.0625 74.375 C-73.05541038 63.81645319 -75.82689781 52.26922077 -75.73217773 38.15722656 C-75.32139743 24.03483761 -69.475381 12.95884274 -59.25 3.28125 C-42.59283172 -10.42061423 -18.05009418 -11.9794347 0 0 Z M-51.3125 19.4375 C-57.99556498 28.09770645 -59.51652068 36.88855167 -58.3125 47.6875 C-56.41852382 55.82375271 -51.93051965 62.55161503 -45 67.2578125 C-36.37680822 72.22182092 -27.27160589 73.26565789 -17.453125 71.0390625 C-8.51018024 67.78960742 -2.59931027 62.15351418 1.77734375 53.80078125 C5.10847632 46.06626313 4.9773904 36.16266844 2.125 28.3125 C-1.83576766 19.87855767 -7.78378212 14.36068164 -16.3125 10.6875 C-28.8450516 6.5723338 -42.27432237 10.01634874 -51.3125 19.4375 Z " fill="#454646" transform="translate(283.3125,15.3125)"/>
</svg>
