<?xml version="1.0" encoding="UTF-8"?>
<svg version="1.1" xmlns="http://www.w3.org/2000/svg" width="512" height="512">
<path d="M0 0 C1.49222832 0.03607361 1.49222832 0.03607361 3.01460266 0.07287598 C4.07227844 0.06688889 5.12995422 0.06090179 6.21968079 0.05473328 C9.72051059 0.0450051 13.21800193 0.09270154 16.71846008 0.14196777 C19.16162401 0.14928088 21.60479907 0.15348108 24.04797363 0.15470886 C29.17713857 0.16548608 34.30518843 0.20262183 39.43403625 0.26037598 C45.96908204 0.33350457 52.50316163 0.3595834 59.03857899 0.36779499 C64.09110901 0.37644113 69.14344383 0.40164993 74.1958828 0.43254662 C76.6025147 0.44700996 79.00916619 0.45854879 81.4158268 0.46697426 C105.20115036 0.58034592 125.34511825 2.4884347 144.51142883 18.02868652 C145.58844055 18.86013184 145.58844055 18.86013184 146.68721008 19.70837402 C160.38314056 30.82468264 169.18369279 48.67195522 171.51142883 66.02868652 C173.41936848 86.42318361 169.30431209 105.93854884 156.63642883 122.34118652 C155.28296801 123.92238071 153.90797365 125.48541279 152.51142883 127.02868652 C151.83467102 127.79825684 151.15791321 128.56782715 150.46064758 129.36071777 C139.04697994 141.6090229 121.98891437 150.26522192 105.14302826 151.21949768 C101.03585051 151.30019734 96.9326777 151.31900453 92.8249054 151.3157959 C91.24862823 151.32182913 89.67235427 151.32875565 88.09608459 151.33650208 C84.71586928 151.35132963 81.33571241 151.36012488 77.95546722 151.36421204 C72.59952991 151.3709619 67.24371666 151.39275978 61.88783264 151.41674805 C50.51239391 151.46560144 39.13692883 151.49797707 27.76142883 151.52868652 C15.49153959 151.56183982 3.22169929 151.59793927 -9.04811502 151.65281725 C-14.36080767 151.67602053 -19.67341394 151.68987028 -24.98615217 151.69631195 C-28.30606237 151.70229566 -31.62590348 151.71643068 -34.94577789 151.73265648 C-36.4722452 151.73847901 -37.99872958 151.74101598 -39.52520752 151.73981667 C-58.1009041 151.72939283 -75.31520117 153.99514517 -89.57450867 166.91931152 C-100.81442033 178.54680635 -104.99161296 192.4829154 -104.73857117 208.31384277 C-103.89846092 220.7973559 -98.2861605 233.10630869 -89.48857117 242.02868652 C-78.54332169 251.00494932 -67.11317796 256.16719917 -52.82601929 256.18690491 C-52.06220642 256.19184288 -51.29839356 256.19678086 -50.51143485 256.20186847 C-47.95653386 256.2172051 -45.40165793 256.22559368 -42.84672546 256.23400879 C-41.01349671 256.24359033 -39.18027015 256.25360057 -37.3470459 256.26400757 C-32.37230809 256.29103279 -27.39756081 256.31205527 -22.42279029 256.33200955 C-17.22308616 256.35388379 -12.02341112 256.38126545 -6.82373047 256.4080658 C3.021726 256.45797322 12.86719864 256.5029193 22.71268672 256.54608816 C33.92179846 256.59547718 45.13088101 256.65038915 56.33996451 256.70576775 C79.39709204 256.81955787 102.45424758 256.9264034 125.51142883 257.02868652 C125.87021622 257.67469315 126.2290036 258.32069977 126.59866333 258.98628235 C128.25853985 261.96810693 129.92594845 264.9456567 131.59346008 267.92321777 C132.15746521 268.93903931 132.72147034 269.95486084 133.30256653 271.00146484 C138.10628336 279.55910228 143.49719601 287.53975153 149.38911438 295.37902832 C150.62077862 297.18941667 151.54862039 299.06456615 152.51142883 301.02868652 C125.05056991 301.09892608 97.58972454 301.15174774 70.12879372 301.18412304 C57.37675082 301.19955841 44.62476391 301.22058396 31.87275696 301.25500488 C20.75151796 301.2850095 9.63031954 301.3042857 -1.49095881 301.31095201 C-7.37358986 301.31484558 -13.2561049 301.32392593 -19.13869858 301.34587669 C-24.68888357 301.36641698 -30.23890605 301.37248527 -35.78912544 301.36800957 C-37.81339594 301.36882699 -39.83767254 301.37468713 -41.86190987 301.38630295 C-74.11556543 301.56212406 -100.31391717 293.62121945 -123.76200867 270.81774902 C-138.25645041 255.40666275 -148.68111172 233.32542934 -149.48857117 212.02868652 C-149.56591492 210.29425293 -149.56591492 210.29425293 -149.64482117 208.52478027 C-150.2489506 182.77376317 -141.96926105 158.16417493 -124.48857117 139.02868652 C-123.79118835 138.25009277 -123.09380554 137.47149902 -122.37528992 136.66931152 C-106.74061551 120.09141179 -83.66945068 109.03150278 -60.87981987 107.8400135 C-56.66938621 107.76506741 -52.46289926 107.74978576 -48.2519989 107.75744629 C-46.64100382 107.75305062 -45.030011 107.74774543 -43.41902161 107.74160767 C-39.97062228 107.73017409 -36.52228385 107.72465319 -33.07386589 107.72372627 C-27.61358004 107.72177324 -22.15341898 107.7036542 -16.69317627 107.68296814 C-3.1360772 107.63395444 10.4210554 107.60290387 23.97822571 107.58166504 C34.52803735 107.56511625 45.07774075 107.54224703 55.62747997 107.49864429 C61.04809466 107.47694766 66.46850328 107.46880248 71.88915837 107.47103703 C75.26794639 107.46936326 78.64660114 107.45527253 82.02534103 107.43782425 C83.58370807 107.43225416 85.14210307 107.43171219 86.70047188 107.43676186 C98.68485924 107.47150554 109.58967975 106.89299945 118.51142883 98.02868652 C125.8611846 88.76799426 127.47576973 80.68622516 126.51142883 69.02868652 C124.67698983 61.43828321 119.61669184 54.82331657 113.19892883 50.45446777 C107.58717664 47.23324818 103.24811084 45.9114995 96.75343323 45.87046814 C95.57836716 45.86067932 94.40330109 45.8508905 93.19262695 45.84080505 C91.9072554 45.83504959 90.62188385 45.82929413 89.29756165 45.82336426 C87.92752794 45.81378192 86.55749718 45.80377163 85.18746948 45.79336548 C81.47090152 45.7663489 77.7543209 45.74532178 74.03770924 45.72536349 C70.15260326 45.7034839 66.26753615 45.67610487 62.38246155 45.64930725 C55.02671963 45.59940705 47.6709561 45.55445831 40.31517196 45.51128489 C31.94036405 45.46188967 23.56559515 45.40698001 15.19082499 45.3516053 C-2.03560434 45.23782627 -19.26206988 45.13097836 -36.48857117 45.02868652 C-35.12747217 42.2345096 -33.71014967 39.87571693 -31.76591492 37.44665527 C-31.23159851 36.76917236 -30.6972821 36.09168945 -30.14677429 35.39367676 C-29.57894226 34.67510498 -29.01111023 33.9565332 -28.42607117 33.21618652 C-23.25157758 26.56971283 -18.67558987 19.79656688 -14.48857117 12.49353027 C-14.02414753 11.71168853 -14.02414753 11.71168853 -13.55034161 10.91405201 C-12.45180278 9.03091386 -12.45180278 9.03091386 -11.56876087 6.97392559 C-8.71645152 1.25687504 -6.30037278 0.10526318 0 0 Z " fill="#000000" transform="translate(191.4885711669922,168.9713134765625)"/>
<path d="M0 0 C13.12692076 11.91949172 20.52578966 28.56910064 21.68359375 46.1015625 C22.17879155 74.24044898 12.36368611 100.80528012 -5.5625 122.375 C-6.01351074 122.92994141 -6.46452148 123.48488281 -6.92919922 124.05664062 C-16.68908064 136.04744652 -28.35884644 149.60681609 -42.5625 156.375 C-52.19784598 154.43025127 -61.55077577 142.8934371 -68.5625 136.375 C-69.23925781 135.75238281 -69.91601562 135.12976563 -70.61328125 134.48828125 C-92.36664806 113.69398071 -107.05562583 83.56805089 -107.89892578 53.45019531 C-108.16558498 33.48788537 -102.62948399 16.8380047 -88.5390625 2.28515625 C-63.40418564 -21.35251675 -26.5831571 -20.87361066 0 0 Z M-68.9375 30.1875 C-74.25248653 37.99757743 -75.62734893 46.02391287 -74.5625 55.375 C-72.7596903 63.13048324 -68.55641955 69.19796897 -62.5625 74.375 C-53.73359097 79.85546353 -45.4237801 81.72868014 -35.08984375 79.94921875 C-26.89568007 77.59357734 -20.62770527 72.55528487 -16.125 65.375 C-11.93114748 57.67271683 -10.04580217 50.19584032 -12.28515625 41.6015625 C-15.69395534 31.5269741 -20.12101057 25.4659992 -29.5625 20.375 C-43.67978525 13.9005209 -59.18090393 18.09413894 -68.9375 30.1875 Z " fill="#000000" transform="translate(448.5625,313.625)"/>
<path d="M0 0 C13.73999897 10.85208796 22.9148532 25.37235832 25.75 42.75 C28.38479335 74.99974605 17.25657662 104.20032862 -3.25 128.75 C-6.17192523 132.16214856 -9.17175755 135.47865747 -12.25 138.75 C-13.11238281 139.7090625 -13.11238281 139.7090625 -13.9921875 140.6875 C-18.56038983 145.56024915 -23.7207732 149.7235756 -28.9375 153.875 C-29.67484375 154.48061768 -30.4121875 155.08623535 -31.171875 155.71020508 C-33.1510552 157.2482454 -35.0153826 158.61474139 -37.25 159.75 C-39.89453125 159.390625 -39.89453125 159.390625 -42.25 157.75 C-43.19875 157.10289062 -44.1475 156.45578125 -45.125 155.7890625 C-74.52588416 133.07687949 -97.60982531 103.30183111 -102.875 65.625 C-104.84999453 44.59496561 -100.77544912 25.93498373 -87.625 9.1875 C-65.16608118 -15.54647813 -26.9709739 -19.40017421 0 0 Z M-64.5625 34.25 C-69.15000917 41.04630989 -71.2323312 48.5869661 -70.25 56.75 C-67.57063069 67.25312768 -62.75597543 74.88048346 -53.4609375 80.5625 C-46.12659575 84.50179309 -37.63358915 84.98995202 -29.5703125 83.1328125 C-20.95552115 80.10019124 -14.39870059 74.58036506 -10.25 66.4375 C-6.45241267 58.03797525 -5.91948716 49.85212474 -8.8125 41 C-12.86445992 31.22183284 -19.61417786 25.85730472 -29.25 21.75 C-43.80752315 18.13267607 -54.74859716 23.64037531 -64.5625 34.25 Z " fill="#000000" transform="translate(145.25,54.25)"/>
</svg>
